<svg id="button05" xmlns="http://www.w3.org/2000/svg" xmlns:xlink="http://www.w3.org/1999/xlink" width="246" height="232.5" viewBox="0 0 164 155">
  <defs>
    <style>
      .cls-1 {
        fill: url(#linear-gradient);
      }

      .cls-2 {
        fill: #fff;
        fill-rule: evenodd;
      }
    </style>
    <linearGradient id="linear-gradient" x1="81.859" y1="143" x2="81.859" y2="12" gradientUnits="userSpaceOnUse">
      <stop offset="0" stop-color="#0dccff"/>
      <stop offset="1" stop-color="#4760ff"/>
    </linearGradient>
  </defs>
  <ellipse id="button" class="cls-1" cx="81.859" cy="77.5" rx="69.453" ry="65.5"/>
  <path id="music5" class="cls-2" d="M109.234,866.385s-7.244-12.706,10.6-11.249c0,0,3.136.421,10.6,12.855S174.953,940.3,174.953,940.3s2.814,5.724-2.12,9.641c0,0-8.769,3.256-12.72-1.607S109.234,866.385,109.234,866.385Zm31.813,32.146c2.338,0,4.234,1.434,4.234,3.2s-1.9,3.2-4.234,3.2-4.234-1.435-4.234-3.2S138.708,898.531,141.047,898.531Zm10.594,19.282c2.338,0,4.234,1.434,4.234,3.2s-1.9,3.2-4.234,3.2-4.235-1.434-4.235-3.2S149.3,917.813,151.641,917.813Zm6.375,9.624c2.338,0,4.234,1.442,4.234,3.219s-1.9,3.219-4.234,3.219-4.235-1.441-4.235-3.219S155.677,927.437,158.016,927.437Zm6.343,9.657c2.339,0,4.235,1.441,4.235,3.219s-1.9,3.218-4.235,3.218-4.234-1.441-4.234-3.218S162.021,937.094,164.359,937.094Z" transform="translate(-63 -822)"/>
</svg>
