<svg id="button04" xmlns="http://www.w3.org/2000/svg" xmlns:xlink="http://www.w3.org/1999/xlink" width="244.5" height="232.5" viewBox="0 0 163 155">
  <defs>
    <style>
      .cls-1 {
        fill: url(#linear-gradient);
      }

      .cls-2 {
        fill: none;
        stroke: #fff;
        stroke-width: 2.51px;
      }

      .cls-3 {
        fill: #fff;
        fill-rule: evenodd;
      }
    </style>
    <linearGradient id="linear-gradient" x1="81.453" y1="143" x2="81.453" y2="12" gradientUnits="userSpaceOnUse">
      <stop offset="0" stop-color="#0dccff"/>
      <stop offset="1" stop-color="#4760ff"/>
    </linearGradient>
  </defs>
  <ellipse id="button" class="cls-1" cx="81.453" cy="77.5" rx="69.453" ry="65.5"/>
  <g id="music4">
    <ellipse class="cls-2" cx="80.844" cy="64.25" rx="52.5" ry="18"/>
    <path id="Ellipse_5_copy_4" data-name="Ellipse 5 copy 4" class="cls-3" d="M92.18,687.129s13.579,27.443,83.023,13.9c0,0,16.225-3.212,22.14-15.641l1.384,24.331s-14.56,22.452-62.268,17.379-42.9-17.379-42.9-17.379Zm10.7,19.07c3.616,1.55,6.213,4.039,5.8,5.559s-3.68,1.5-7.3-.056-6.212-4.039-5.8-5.559S99.262,704.648,102.878,706.2Zm19.194,5.148c3.7,1.179,6.452,3.4,6.138,4.953s-3.571,1.863-7.275.684-6.452-3.4-6.138-4.953S118.368,710.168,122.072,711.347Zm22.958,3.391c3.821,0,6.919,1.3,6.92,2.9s-3.1,2.909-6.918,2.912-6.919-1.3-6.92-2.9S141.209,714.74,145.03,714.738Zm26.217-3.474c3.819-.156,6.949,1.018,6.99,2.623s-3.02,3.033-6.839,3.19-6.949-1.018-6.991-2.624S167.428,711.42,171.247,711.264Zm18.521-6.713c3.5-1.934,6.749-2.309,7.264-.84s-1.9,4.229-5.4,6.163-6.75,2.309-7.265.839S186.27,706.484,189.768,704.551Z" transform="translate(-64 -616)"/>
  </g>
</svg>
