<svg id="button08" xmlns="http://www.w3.org/2000/svg" xmlns:xlink="http://www.w3.org/1999/xlink" width="246" height="232.5" viewBox="0 0 164 155">
  <defs>
    <style>
      .cls-1 {
        fill: url(#linear-gradient);
      }

      .cls-2, .cls-4 {
        fill: #fff;
      }

      .cls-2, .cls-3, .cls-4 {
        fill-rule: evenodd;
      }

      .cls-3 {
        fill: none;
      }

      .cls-3, .cls-4 {
        stroke: #fff;
        stroke-width: 2.51px;
      }
    </style>
    <linearGradient id="linear-gradient" x1="81.859" y1="143" x2="81.859" y2="12" gradientUnits="userSpaceOnUse">
      <stop offset="0" stop-color="#0dccff"/>
      <stop offset="1" stop-color="#4760ff"/>
    </linearGradient>
  </defs>
  <ellipse id="button" class="cls-1" cx="81.859" cy="77.5" rx="69.453" ry="65.5"/>
  <g id="music8">
    <g>
      <path class="cls-2" d="M309.812,1092.1c1.489-.87,27.117-4.3,41.239,10.6,0,0-2.239,19.33-2.356,17.68s-24.6-17.13-43.6-11.78C305.1,1108.6,308.324,1092.97,309.812,1092.1Z" transform="translate(-274 -1049)"/>
      <path class="cls-3" d="M327.964,1112.43c11.114,2.83,18.787,7.48,17.139,10.38s-11.994,2.96-23.107.13-18.787-7.48-17.138-10.38S316.851,1109.6,327.964,1112.43Z" transform="translate(-274 -1049)"/>
    </g>
    <g id="Group_7_copy" data-name="Group 7 copy">
      <path class="cls-2" d="M403.552,1091.92c-1.511-.88-27.525-4.3-41.86,10.6,0,0,2.273,19.33,2.392,17.67s24.975-17.12,44.252-11.78C408.336,1108.41,405.063,1092.79,403.552,1091.92Z" transform="translate(-274 -1049)"/>
      <path class="cls-3" d="M385.127,1112.24c-11.281,2.84-19.07,7.49-17.4,10.39s12.175,2.96,23.456.13,19.069-7.49,17.4-10.39S396.408,1109.41,385.127,1112.24Z" transform="translate(-274 -1049)"/>
    </g>
    <g>
      <path class="cls-3" d="M346.338,1105.06h21.209" transform="translate(-274 -1049)"/>
      <path class="cls-3" d="M355.764,1100.35l1.179,31.81" transform="translate(-274 -1049)"/>
      <path class="cls-4" d="M355.469,1125.06c15.136,0,27.406,11.94,27.406,26.66s-12.27,26.66-27.406,26.66-27.407-11.94-27.407-26.66S340.333,1125.06,355.469,1125.06Zm0.3,17.69a8.25,8.25,0,1,1-8.235,8.25A8.24,8.24,0,0,1,355.766,1142.75Z" transform="translate(-274 -1049)"/>
    </g>
  </g>
</svg>
