<?xml version="1.0" encoding="utf-8"?>
<!-- Generator: Adobe Illustrator 24.1.3, SVG Export Plug-In . SVG Version: 6.00 Build 0)  -->
<svg version="1.1" id="bear" xmlns="http://www.w3.org/2000/svg" xmlns:xlink="http://www.w3.org/1999/xlink" x="0px" y="0px"
	 viewBox="0 0 305.2 479.1" style="enable-background:new 0 0 305.2 479.1;" xml:space="preserve">
<style type="text/css">
	.st0{fill:#755EA8;}
	.st1{fill:#C6892B;stroke:#4460AC;stroke-width:6;stroke-miterlimit:10;}
	.st2{fill:#DD8337;}
	.st3{fill:#FFFFFF;stroke:#755EA8;stroke-miterlimit:10;}
	.st4{fill:#121312;}
	.st5{fill:#7CC35A;stroke:#171917;stroke-width:2;stroke-miterlimit:10;}
	.st6{fill:#C75A77;}
	.st7{fill:none;stroke:#171917;stroke-width:2;stroke-miterlimit:10;}
	.st8{fill:#342F2A;stroke:#F68720;stroke-width:0.75;stroke-miterlimit:10;}
	.st9{fill:#FFFFFF;}
</style>
<path id="right_x5F_fot" class="st0" d="M140.3,455.7c0,25-6.8,22.8-16.8,22.8s-19.2,2.2-19.2-22.8s8.8-47.8,18.8-47.8
	S140.3,430.8,140.3,455.7z"/>
<path id="left_x5F_arm" class="st0" d="M70,321.1c-22.4,27-45.9,37.9-57.3,28.5c-11.3-9.4,5-24.4,27.3-51.4
	c22.4-27,38.5-52.4,49.9-43C101.3,264.6,92.4,294.1,70,321.1z"/>
<path id="right_x5F_arm" class="st0" d="M238.5,314.1c-25.3-24.2-34.5-48.5-24.4-59.2c10.2-10.6,24,6.7,49.3,30.9
	c25.3,24.2,49.5,42.2,39.3,52.8C292.6,349.4,263.8,338.4,238.5,314.1z"/>
<ellipse id="left_x5F_ear" class="st1" cx="47.5" cy="45.3" rx="44.5" ry="42.3"/>
<ellipse id="right_x5F_ear" class="st1" cx="262.5" cy="43.9" rx="44.5" ry="42.3"/>
<path id="head_1_" class="st2" d="M299.8,168.5c0,59.2-68.7,114.3-142.1,114.3S4.1,224.5,4.1,165.2S80.2,40.7,153.6,40.7
	S299.8,109.3,299.8,168.5z"/>
<path id="head_x5F_stripe" class="st0" d="M230.8,97c0,44.2-36.7,104.2-76.4,104.2S73,140.9,73,96.7s41.7-55.6,81.4-55.6
	S230.8,52.8,230.8,97z"/>
<g id="nose_1_">
	<g id="belly_1_">
		<path id="belly" class="st2" d="M251.8,347.9c0,59.7-41.1,85.2-94.2,85.2s-98-25.5-98-85.2s43-108.1,96.1-108.1
			S251.8,288.2,251.8,347.9z"/>
		<ellipse class="st3" cx="157" cy="336.4" rx="53.6" ry="69.4"/>
	</g>
	<ellipse class="st3" cx="153.7" cy="210.3" rx="42" ry="35"/>
	<ellipse id="nose" class="st4" cx="156.5" cy="194.5" rx="11.5" ry="12.3"/>
</g>
<g id="mouth">
	<line class="st5" x1="156.5" y1="205.4" x2="156.5" y2="219.5"/>
	<polygon class="st6" points="154.4,227.7 152.4,226.8 150.5,227.6 150.9,225.8 149.3,224.5 151.5,224.3 152.5,222.6 153.5,224.3 
		155.7,224.6 154.1,225.9 	"/>
	<polygon class="st6" points="157.5,227.3 155.6,226.4 153.6,227.2 154,225.4 152.5,224.1 154.7,223.9 155.7,222.2 156.6,223.9 
		158.8,224.2 157.2,225.5 	"/>
	<polygon class="st6" points="157.6,228 155.7,227.1 153.7,227.9 154.1,226.1 152.6,224.8 154.8,224.6 155.8,223 156.7,224.6 
		158.9,225 157.3,226.2 	"/>
	<polygon class="st6" points="160,228 158.1,227.1 156.1,227.9 156.5,226.1 155,224.8 157.2,224.6 158.2,222.9 159.1,224.6 
		161.3,224.9 159.7,226.2 	"/>
	<polygon class="st6" points="161,227.9 159.1,227 157.1,227.8 157.5,226 156,224.6 158.2,224.4 159.2,222.8 160.1,224.5 
		162.3,224.8 160.7,226 	"/>
	<polygon class="st6" points="165,226.5 163,225.6 161,226.4 161.5,224.6 159.9,223.3 162.1,223.1 163.1,221.5 164.1,223.1 
		166.3,223.4 164.6,224.7 	"/>
	<polygon class="st6" points="162.6,226 160.6,225.1 158.6,226 159,224.1 157.5,222.8 159.7,222.6 160.7,221 161.6,222.7 163.8,223 
		162.2,224.2 	"/>
	<polygon class="st6" points="161.2,225.4 159.2,224.5 157.2,225.3 157.6,223.5 156.1,222.2 158.3,222 159.3,220.4 160.3,222 
		162.4,222.4 160.8,223.6 	"/>
	<polygon class="st6" points="159.6,225.7 157.6,224.8 155.6,225.6 156.1,223.8 154.5,222.5 156.7,222.3 157.7,220.6 158.7,222.3 
		160.8,222.6 159.2,223.9 	"/>
	<polygon class="st6" points="156,225.3 154,224.4 152,225.2 152.4,223.4 150.9,222.1 153.1,221.9 154.1,220.3 155,221.9 
		157.2,222.3 155.6,223.5 	"/>
	<polygon class="st6" points="154.1,226.2 152.1,225.3 150.1,226.1 150.5,224.3 149,223 151.2,222.8 152.2,221.1 153.1,222.8 
		155.3,223.1 153.7,224.4 	"/>
	<polygon class="st6" points="163.4,227.7 161.5,226.8 159.5,227.6 159.9,225.8 158.3,224.5 160.6,224.3 161.6,222.7 162.5,224.3 
		164.7,224.6 163.1,225.9 	"/>
	<polygon class="st6" points="151.3,226.5 149.3,225.6 147.3,226.4 147.7,224.6 146.2,223.3 148.4,223.1 149.4,221.5 150.3,223.1 
		152.5,223.5 150.9,224.7 	"/>
	<polygon class="st6" points="159,225 156.7,223.7 154.2,224.9 154.7,222.3 152.8,220.3 155.5,220 156.8,217.6 157.9,220.1 
		160.6,220.5 158.6,222.4 	"/>
	<polygon class="st6" points="158,228.7 155.6,227.4 153.1,228.6 153.6,225.9 151.7,224 154.4,223.7 155.7,221.3 156.9,223.7 
		159.6,224.2 157.6,226 	"/>
	<path class="st7" d="M138.4,216.4c0.5,0.8,3.5,5.6,8.8,6c5.7,0.4,9.3-4.9,9.8-5.6"/>
	<path class="st7" d="M156.3,216.5c0.5,0.8,3.4,5.6,8.3,6c5.4,0.3,8.9-4.9,9.3-5.6"/>
	<path class="st7" d="M144.1,221.8c2.6,4.1,7.6,6.6,12.9,6.4c7.7-0.3,11.5-6.1,11.7-6.4"/>
</g>
<path id="left_x5F_foot" class="st2" d="M210.5,456.7c0,24.4-6.8,22.3-16.8,22.3s-19.2,2.1-19.2-22.3c0-24.4,8.8-46.8,18.8-46.8
	C203.2,409.9,210.5,432.3,210.5,456.7z"/>
<g id="left_x5F_eye">
	<ellipse class="st8" cx="91.3" cy="176.3" rx="24.2" ry="23.8"/>
	<ellipse class="st9" cx="83.7" cy="171.7" rx="7.5" ry="7.4"/>
	<ellipse class="st9" cx="97.1" cy="181.7" rx="5" ry="5.1"/>
</g>
<g id="right_x5F_eye">
	<ellipse class="st8" cx="219.6" cy="179.8" rx="24.2" ry="23.8"/>
	<ellipse class="st9" cx="212.3" cy="175.1" rx="7.5" ry="7.4"/>
	<ellipse class="st9" cx="227.3" cy="186" rx="5" ry="5.1"/>
</g>
</svg>
