<?xml version="1.0" encoding="utf-8"?>
<!-- Generator: Adobe Illustrator 24.1.3, SVG Export Plug-In . SVG Version: 6.00 Build 0)  -->
<svg version="1.1" id="bunny" xmlns="http://www.w3.org/2000/svg" xmlns:xlink="http://www.w3.org/1999/xlink" x="0px" y="0px"
	 viewBox="0 0 82.6 184.4" style="enable-background:new 0 0 82.6 184.4;" xml:space="preserve">
<style type="text/css">
	.st0{fill:#E2C8C7;}
	.st1{fill:#EDE6E0;}
	.st2{fill:#2D2D2C;}
	.st3{fill:#96523F;}
	.st4{fill:#070707;}
	.st5{fill:#FFFFFF;}
	.st6{fill:#D8C3D7;}
	.st7{fill:#F3BCBD;}
</style>
<ellipse id="belly" class="st0" cx="41.5" cy="132.8" rx="27.3" ry="29.4"/>
<g id="left_x5F_ear">
	<ellipse class="st0" cx="24.5" cy="31.1" rx="8.5" ry="31.1"/>
	<ellipse class="st1" cx="24.6" cy="34.6" rx="6.3" ry="22.9"/>
</g>
<g id="right_x5F_ear">
	<ellipse class="st1" cx="58.9" cy="31.8" rx="8.5" ry="31.1"/>
	<ellipse class="st0" cx="58.7" cy="35.7" rx="6.3" ry="22.9"/>
</g>
<ellipse id="head" class="st0" cx="41.3" cy="85.2" rx="41.3" ry="32.5"/>
<ellipse id="left_x5F_arm" transform="matrix(0.4351 -0.9004 0.9004 0.4351 -105.0578 82.2882)" class="st0" cx="13.1" cy="124.9" rx="14.4" ry="5.5"/>
<ellipse id="right_x5F_arm" transform="matrix(0.866 -0.5 0.5 0.866 -52.3308 51.9103)" class="st0" cx="70.7" cy="123.6" rx="5.5" ry="14.4"/>
<rect id="left_x5F_leg" x="25.2" y="152.8" class="st0" width="12" height="21.1"/>
<rect id="right_x5F_leg" x="46.4" y="153.5" class="st0" width="12" height="20.9"/>
<g id="left_x5F_foot">
	<ellipse class="st1" cx="31.8" cy="177.2" rx="7" ry="6.6"/>
	<rect x="33.1" y="175.4" class="st2" width="1.4" height="6.5"/>
	<rect x="28.2" y="175.3" class="st2" width="1.4" height="6.5"/>
</g>
<g id="right_x5F_feet">
	<ellipse class="st1" cx="52.1" cy="177.8" rx="7" ry="6.6"/>
	<rect x="53.4" y="176" class="st2" width="1.4" height="6.5"/>
	<rect x="48.6" y="175.9" class="st2" width="1.4" height="6.5"/>
</g>
<g id="_x3B_eft_x5F_eye">
	<circle class="st3" cx="22.4" cy="88.4" r="4.4"/>
	<ellipse transform="matrix(0.9924 -0.1229 0.1229 0.9924 -10.9152 3.3691)" class="st4" cx="21.8" cy="90.1" rx="1.1" ry="1.1"/>
	<ellipse class="st5" cx="20.5" cy="89.4" rx="0.9" ry="0.9"/>
	<ellipse class="st6" cx="19.9" cy="86.3" rx="1.3" ry="1.3"/>
</g>
<g id="right_x5F_eye">
	<circle class="st3" cx="61.3" cy="88.9" r="4.4"/>
	<ellipse transform="matrix(0.9924 -0.1229 0.1229 0.9924 -10.6901 8.1605)" class="st4" cx="60.8" cy="90.7" rx="1.1" ry="1.1"/>
	<ellipse class="st5" cx="59.4" cy="90" rx="0.9" ry="0.9"/>
	<ellipse class="st6" cx="58.8" cy="86.9" rx="1.3" ry="1.3"/>
</g>
<path id="belly_x5F_stripe" class="st1" d="M60.5,135.8c0,11.5-7.7,13.1-17.8,13.1s-18.8-1.6-18.8-13.1c0-11.5,8.2-20.8,18.3-20.8
	S60.5,124.3,60.5,135.8z"/>
<g id="nose">
	<ellipse class="st1" cx="43.2" cy="100.3" rx="11.6" ry="6.1"/>
	<ellipse class="st7" cx="43.6" cy="105.1" rx="1.7" ry="1.8"/>
	<ellipse class="st7" cx="43.6" cy="96" rx="3.6" ry="2.9"/>
</g>
</svg>
