<?xml version="1.0" encoding="utf-8"?>
<!-- Generator: Adobe Illustrator 24.1.3, SVG Export Plug-In . SVG Version: 6.00 Build 0)  -->
<svg version="1.1" id="deer" xmlns="http://www.w3.org/2000/svg" xmlns:xlink="http://www.w3.org/1999/xlink" x="0px" y="0px"
	 viewBox="0 0 111.6 194.9" style="enable-background:new 0 0 111.6 194.9;" xml:space="preserve">
<style type="text/css">
	.st0{fill:none;stroke:#D8DBD5;stroke-miterlimit:10;}
	.st1{fill:#EB8B5D;}
	.st2{fill:#FDD5C0;}
	.st3{fill:#967060;}
	.st4{fill:#2E2725;}
	.st5{fill:#EDBCA5;}
	.st6{fill:#4B2814;}
	.st7{fill:#3E160B;}
	.st8{fill:#070707;}
	.st9{fill:#FFFFFF;}
	.st10{fill:#F5D9BC;}
</style>
<g id="left_x5F_antler">
	<polyline class="st0" points="46.9,59.1 43.6,49.5 34.7,37.7 25.1,26.4 26.8,0.7 	"/>
	<polyline class="st0" points="32.6,6 26.6,13.9 18.9,6.6 	"/>
	<polyline class="st0" points="36.6,23.9 34.7,37.7 23.6,37.7 17,33.7 	"/>
	<polyline class="st0" points="41.7,47.1 30.4,45.2 20.1,42.6 	"/>
</g>
<g id="right_x5F_antler">
	<polyline class="st0" points="69.3,58.6 90.3,26 89.2,0 	"/>
	<polyline class="st0" points="98,5.6 90.1,13.4 84.8,6.6 	"/>
	<polyline class="st0" points="79.6,24.7 80.5,38.4 87.5,37.9 96.5,36.7 99.7,33.5 	"/>
	<polyline class="st0" points="76.2,47.6 88.9,46.1 96.7,42.8 	"/>
</g>
<ellipse id="head" class="st1" cx="57.2" cy="88.2" rx="42.4" ry="30.9"/>
<path id="stripe" class="st2" d="M30.4,70.9C29.8,61,45.5,57,56.5,57.2c12.6,0.2,27,3.2,27.6,13.1S68.1,97.8,57.1,98.5
	S31,80.8,30.4,70.9z"/>
<path id="belly" class="st1" d="M82.5,146.9c0,18.2-11,29.7-24.9,29.7s-25.3-11.6-25.3-29.7S43.5,114,57.4,114
	S82.5,128.8,82.5,146.9z"/>
<g id="left_x5F_ear">
	<ellipse transform="matrix(0.5879 -0.8089 0.8089 0.5879 -40.754 36.6704)" class="st1" cx="15.6" cy="58.3" rx="9.6" ry="18"/>
	<ellipse transform="matrix(0.5879 -0.8089 0.8089 0.5879 -40.7055 37.2328)" class="st3" cx="16.2" cy="58.6" rx="7" ry="13.3"/>
</g>
<g id="right_x5F_ear">
	<ellipse transform="matrix(0.6329 -0.7742 0.7742 0.6329 -7.3962 96.4815)" class="st1" cx="98" cy="56" rx="18" ry="9.6"/>
	<ellipse transform="matrix(0.5807 -0.8141 0.8141 0.5807 -4.7967 103.9181)" class="st3" cx="98.5" cy="56.6" rx="13.3" ry="7"/>
</g>
<g id="left_x5F_foot">
	<rect x="38" y="165.9" class="st1" width="7.4" height="24.6"/>
	<path class="st4" d="M43,194.9h-2.9c-1.3,0-2.3-1-2.3-2.3V190c0-1.3,1-2.3,2.3-2.3H43c1.3,0,2.3,1,2.3,2.3v2.6
		C45.3,193.9,44.3,194.9,43,194.9z"/>
</g>
<g id="right_x5F_foot">
	<rect x="69.9" y="166.1" class="st1" width="7.4" height="24.6"/>
	<path class="st4" d="M75,194.9h-2.9c-1.3,0-2.3-1-2.3-2.3V190c0-1.3,1-2.3,2.3-2.3H75c1.3,0,2.3,1,2.3,2.3v2.6
		C77.3,193.9,76.3,194.9,75,194.9z"/>
</g>
<ellipse id="mouth" class="st5" cx="57.2" cy="110.2" rx="11.5" ry="9.7"/>
<ellipse id="nose" class="st6" cx="57.2" cy="100.5" rx="6.8" ry="4.5"/>
<g id="left_x5F_eye">
	<circle class="st7" cx="38.8" cy="103" r="4.8"/>
	<ellipse transform="matrix(0.9924 -0.1229 0.1229 0.9924 -12.6167 5.4942)" class="st8" cx="38.2" cy="105" rx="1.2" ry="1.2"/>
	<ellipse class="st9" cx="36.7" cy="104.2" rx="1" ry="0.9"/>
	<ellipse class="st10" cx="36" cy="100.8" rx="1.5" ry="1.4"/>
</g>
<g id="right_x5F_eye">
	<circle class="st7" cx="75.1" cy="102.1" r="4.8"/>
	<ellipse transform="matrix(0.9924 -0.1229 0.1229 0.9924 -12.228 9.9492)" class="st8" cx="74.5" cy="104.1" rx="1.2" ry="1.2"/>
	<ellipse class="st9" cx="73" cy="103.2" rx="1" ry="0.9"/>
	<ellipse class="st10" cx="72.3" cy="99.9" rx="1.5" ry="1.4"/>
</g>
<g id="left_x5F_arm">
	
		<ellipse transform="matrix(0.5997 -0.8002 0.8002 0.5997 -93.6823 79.3674)" class="st1" cx="32.5" cy="133.3" rx="15.6" ry="4.9"/>
	<path class="st4" d="M27.8,143.9c0,2-2.4,5-3.5,5c-1.1,0-2-1.6-2-3.7s0.9-3.7,2-3.7C25.4,141.6,27.8,141.9,27.8,143.9z"/>
</g>
<g id="right_x5F_arm">
	<ellipse transform="matrix(0.8284 -0.5602 0.5602 0.8284 -60.7111 69.4459)" class="st1" cx="83" cy="133.8" rx="4.9" ry="15.6"/>
	<path class="st4" d="M92.1,142.2c1.2,1.7,0.9,5.4,0,6.1c-0.9,0.7-2.6-0.2-3.8-1.8c-1.2-1.7-1.4-3.5-0.5-4.2
		C88.7,141.7,90.9,140.6,92.1,142.2z"/>
</g>
<path id="belly_x5F_stripe" class="st2" d="M69.8,147.3c0,12.6-5.4,14.4-12.5,14.4c-7.1,0-13.2-1.7-13.2-14.4
	c0-12.6,5.7-22.9,12.8-22.9S69.8,134.6,69.8,147.3z"/>
</svg>
