<?xml version="1.0" encoding="utf-8"?>
<!-- Generator: Adobe Illustrator 24.1.3, SVG Export Plug-In . SVG Version: 6.00 Build 0)  -->
<svg version="1.1" id="elephant" xmlns="http://www.w3.org/2000/svg" xmlns:xlink="http://www.w3.org/1999/xlink" x="0px" y="0px"
	 viewBox="0 0 141.5 177.2" style="enable-background:new 0 0 141.5 177.2;" xml:space="preserve">
<style type="text/css">
	.st0{fill:#9DA9A8;}
	.st1{fill:#F5FBFB;}
	.st2{fill:#7D9695;}
	.st3{fill:#060707;}
	.st4{fill:#FDFEFF;}
	.st5{fill:none;stroke:#1D2E2C;stroke-width:2;stroke-miterlimit:10;}
</style>
<g id="left_x5F_ear">
	<ellipse class="st0" cx="29" cy="34.1" rx="29" ry="26.2"/>
	<ellipse class="st1" cx="30.2" cy="34.6" rx="17.7" ry="16.6"/>
</g>
<ellipse id="head" class="st0" cx="72.5" cy="73.5" rx="39.4" ry="34.4"/>
<g id="right_x5F_ear">
	<ellipse class="st0" cx="95.3" cy="26.2" rx="29" ry="26.2"/>
	<ellipse class="st1" cx="97.8" cy="26.8" rx="17.7" ry="16.6"/>
</g>
<path id="nose" class="st0" d="M141,76.2c3.3,12.1-11.1,17.7-24.8,17.7s-24.7,12.6-24.7,0s10.4-14.4,24-14.4S139.4,70,141,76.2z"/>
<ellipse id="belly" class="st0" cx="73.6" cy="125.3" rx="33.8" ry="35"/>
<ellipse id="left_x5F_arm" transform="matrix(0.3054 -0.9522 0.9522 0.3054 -90.9032 122.4596)" class="st0" cx="38.5" cy="123.5" rx="16.9" ry="6.6"/>
<ellipse id="right_x5F_arm" transform="matrix(0.9513 -0.3082 0.3082 0.9513 -32.6565 39.5668)" class="st0" cx="108.9" cy="123.2" rx="6.4" ry="17"/>
<g id="right_x5F_foot">
	<rect x="77.2" y="151.9" class="st0" width="13.1" height="25.2"/>
	<rect x="77.2" y="172.4" class="st2" width="12.9" height="4.8"/>
</g>
<g id="left_x5F_foot">
	<rect x="56.1" y="151.4" class="st0" width="13.1" height="25.2"/>
	<rect x="56.1" y="172" class="st2" width="12.9" height="4.8"/>
</g>
<g id="left_x5F_eye">
	<ellipse class="st3" cx="59.5" cy="79.6" rx="6.7" ry="7"/>
	<ellipse class="st4" cx="57.2" cy="78.7" rx="2.2" ry="2.3"/>
	<ellipse class="st4" cx="61.6" cy="80.4" rx="1.1" ry="1.1"/>
</g>
<g id="right_x5F_eye">
	<ellipse class="st3" cx="96.7" cy="73.4" rx="6.7" ry="7"/>
	<ellipse class="st4" cx="99.2" cy="75.5" rx="1.1" ry="1.1"/>
	<ellipse class="st4" cx="94.9" cy="72.8" rx="2.2" ry="2.3"/>
</g>
<ellipse id="belly_x5F_stripe" class="st1" cx="75.4" cy="126.9" rx="16.9" ry="19.5"/>
<path id="mouth" class="st5" d="M77.4,96.7c0.4,0.5,3,3.9,7.1,3.7c4.4-0.2,6.7-4.5,6.9-5"/>
</svg>
