<?xml version="1.0" encoding="utf-8"?>
<!-- Generator: Adobe Illustrator 24.1.3, SVG Export Plug-In . SVG Version: 6.00 Build 0)  -->
<svg version="1.1" id="seal" xmlns="http://www.w3.org/2000/svg" xmlns:xlink="http://www.w3.org/1999/xlink" x="0px" y="0px"
	 viewBox="0 0 137.5 163.4" style="enable-background:new 0 0 137.5 163.4;" xml:space="preserve">
<style type="text/css">
	.st0{fill:#5A69AB;}
	.st1{fill:#EDE6E0;}
	.st2{fill:#010101;}
	.st3{fill:#F3BCBD;}
	.st4{fill:#FFFFFF;}
	.st5{fill:#E5AE9A;}
</style>
<g id="tail">
	<path class="st0" d="M89.3,114.3c-19.5-0.4-37.8,0.6-38,10.3c-0.2,9.8,15.5,18,35.1,18.3c19.5,0.4,40.1-33.1,36.7-42.2
		C119.6,91.5,108.8,114.6,89.3,114.3z"/>
	<path class="st0" d="M118,91.9c0,6.5,6.4,11.7,0,11.7c-6.4,0-11.6-5.2-11.6-11.7s5.2-11.7,11.6-11.7C124.4,80.2,118,85.5,118,91.9z
		"/>
	<path class="st0" d="M125.9,95.5c4-5,2.3-13.1,7.3-9.1c5,4,5.8,11.3,1.7,16.3s-11.3,5.9-16.3,1.9S121.9,100.6,125.9,95.5z"/>
</g>
<path id="belly" class="st0" d="M80,123.2c-8.2,16.5,24.8,19,3.9,19s-47.7-7.7-56.2-24.1c-9.3-18,2.1-34.8,23-34.8
	S89.3,104.4,80,123.2z"/>
<path id="head" class="st0" d="M94.1,53.1c0,19.3-24,41.2-47,41.2S0,73,0,53.7s24.6-40.5,47.7-40.5S94.1,33.8,94.1,53.1z"/>
<g id="nose_1_">
	<path id="nose" class="st1" d="M65.6,81.5c0,7.2-8.8,12.7-17.9,12.7s-18.1-6-18.1-13.2c0-7.2,9.1-8.7,18.1-8.7S65.6,74.3,65.6,81.5
		z"/>
	<ellipse class="st2" cx="47.8" cy="73.1" rx="6.7" ry="5.6"/>
	<ellipse class="st3" cx="47.3" cy="89.1" rx="2.5" ry="2.9"/>
</g>
<path id="fin_x5F_left" class="st0" d="M19.1,131c-4.2,9.8-6,16.9-3.3,18c2.7,1.2,3.3,12.4,7.5,2.7c4.2-9.8,10.5-36.9,7.8-38
	C28.3,112.5,23.3,121.3,19.1,131z"/>
<path id="fin_x5F_right" class="st0" d="M70.6,149.4c5.4,9.2,10.1,14.8,12.6,13.3c2.5-1.5,12,4.7,6.6-4.5
	c-5.4-9.2-23.6-30.2-26.1-28.8C61.2,131,65.3,140.2,70.6,149.4z"/>
<g id="right_x5F_eye">
	<ellipse class="st2" cx="64.6" cy="61.7" rx="6.3" ry="6.5"/>
	<ellipse class="st4" cx="66.5" cy="58.6" rx="2.4" ry="2.2"/>
	<ellipse class="st4" cx="62.4" cy="61.8" rx="1.5" ry="1.5"/>
</g>
<g id="left_x5F_eye">
	<ellipse class="st2" cx="25.6" cy="60.9" rx="6.3" ry="6.5"/>
	<ellipse class="st4" cx="27.5" cy="57.7" rx="2.4" ry="2.2"/>
	<ellipse class="st4" cx="23.4" cy="60.9" rx="1.5" ry="1.5"/>
</g>
<ellipse id="belly_x5F_stripe" class="st1" cx="53.7" cy="112.9" rx="16.2" ry="14.9"/>
<g id="shell">
	<ellipse class="st5" cx="59" cy="8.9" rx="7.9" ry="8.9"/>
	<ellipse class="st5" cx="39.2" cy="9.1" rx="7.9" ry="8.9"/>
	<ellipse class="st5" cx="49.7" cy="11.2" rx="6.5" ry="9.2"/>
</g>
</svg>
