<?xml version="1.0" encoding="utf-8"?>
<!-- Generator: Adobe Illustrator 24.1.3, SVG Export Plug-In . SVG Version: 6.00 Build 0)  -->
<svg version="1.1" id="skunk" xmlns="http://www.w3.org/2000/svg" xmlns:xlink="http://www.w3.org/1999/xlink" x="0px" y="0px"
	 viewBox="0 0 124.2 140.2" style="enable-background:new 0 0 124.2 140.2;" xml:space="preserve">
<style type="text/css">
	.st0{fill:#E0DFE3;}
	.st1{fill:#464246;}
	.st2{fill:#010101;}
	.st3{fill:#464246;stroke:#E0DFE3;stroke-width:3;stroke-miterlimit:10;}
	.st4{fill:#0E0D0E;}
	.st5{fill:#FFFFFF;}
	.st6{fill:none;stroke:#151919;stroke-miterlimit:10;}
</style>
<path id="head" class="st0" d="M97.8,44.5c-0.9,20.4-27.2,35.9-47,35.1C31,78.7-0.9,66.1,0,45.7C0.4,37.1,6.3,29,14.4,22.6
	C25.5,14,40.7,8.5,52.1,9C71.9,9.9,98.7,24.1,97.8,44.5z"/>
<polygon id="head_x5F_stripe_x5F_left" class="st1" points="20.5,29.9 38.1,42.5 48.2,50.2 49,58.4 29.5,51.9 12.4,47 0.1,42.9 
	0.7,39.2 3.7,32.4 7.1,27.9 11.4,24 "/>
<polygon id="head_x5F_stripe_x5F_right" class="st1" points="86.4,46.7 65.9,54 53.6,57 46.5,52.9 63.2,40.6 77.4,30 87.9,22.6 
	90.5,25.2 94.6,29.9 97.5,36.3 98,42.4 "/>
<ellipse id="nose" class="st2" cx="50.5" cy="54.8" rx="6.1" ry="5.2"/>
<g id="left_x5F_arm_1_">
	<ellipse class="st3" cx="15.3" cy="12.4" rx="10.9" ry="10.3"/>
</g>
<g id="right_x5F_ear">
	<ellipse class="st3" cx="86.2" cy="11.8" rx="10.9" ry="10.3"/>
</g>
<g id="left_x5F_eye">
	<ellipse class="st3" cx="33.3" cy="50.5" rx="7.4" ry="7.1"/>
	<circle class="st4" cx="33.3" cy="50.5" r="4.2"/>
	<circle class="st5" cx="32.4" cy="50.6" r="1.3"/>
</g>
<g id="right_x5F_eye">
	<ellipse class="st3" cx="64.9" cy="50.7" rx="7.4" ry="7.1"/>
	<circle class="st4" cx="65" cy="51.2" r="4.2"/>
	<ellipse class="st5" cx="63.4" cy="50.8" rx="1.3" ry="1.4"/>
</g>
<path id="mouth" class="st6" d="M45.7,65.7c0.2,0.5,1.9,3.9,4.8,4.1c3.2,0.2,5.2-3.5,5.4-3.9"/>
<ellipse id="belly" class="st0" cx="49.1" cy="100.8" rx="29.1" ry="29.7"/>
<ellipse id="belly_x5F_stripe_x5F_black" class="st1" cx="50.6" cy="100.6" rx="14.9" ry="17.9"/>
<ellipse id="left_x5F_arm" transform="matrix(0.6192 -0.7852 0.7852 0.6192 -57.68 51.3995)" class="st0" cx="24.2" cy="85.2" rx="14.4" ry="6.3"/>
<ellipse id="right_x5F_arm" transform="matrix(0.866 -0.5 0.5 0.866 -33.2603 48.7092)" class="st0" cx="74.3" cy="86.4" rx="6.3" ry="14.4"/>
<path id="tail" class="st0" d="M124.2,94.4c0,5.4-1.7,30.6-19.9,30.6s-30.8-10-30.8-15.3s10.5-2,28.7-2S124.2,89,124.2,94.4z"/>
<path id="tail_x5F_stripe_x5F_black" class="st1" d="M119.3,103.7c0,3.4-1,19.2-12.5,19.2s-19.3-6.3-19.3-9.6s6.6-1.2,18-1.2
	S119.3,100.3,119.3,103.7z"/>
<ellipse id="tail_x5F_stripe_x5F_grey" class="st0" cx="105.6" cy="117.1" rx="7" ry="2.2"/>
<ellipse id="belly_x5F_stripe_x5F_grey" class="st0" cx="50.7" cy="102.5" rx="7.9" ry="9.4"/>
<ellipse id="left_x5F_foot" class="st0" cx="37.1" cy="129.7" rx="7.1" ry="10.5"/>
<ellipse id="right_x5F_foot" class="st0" cx="62.9" cy="129.2" rx="7.1" ry="10.5"/>
</svg>
